<svg width="19" height="19" viewBox="0 0 19 19" fill="none" xmlns="http://www.w3.org/2000/svg">
<path d="M17.5 1H18.5C18.5 0.734784 18.3946 0.48043 18.2071 0.292893C18.0195 0.105357 17.7652 0 17.5 0V1ZM16.5 13C16.5 13.2652 16.6053 13.5196 16.7929 13.7071C16.9804 13.8946 17.2347 14 17.5 14C17.7652 14 18.0195 13.8946 18.2071 13.7071C18.3946 13.5196 18.5 13.2652 18.5 13H16.5ZM5.49996 0C5.23474 0 4.98039 0.105357 4.79285 0.292893C4.60532 0.48043 4.49996 0.734784 4.49996 1C4.49996 1.26522 4.60532 1.51957 4.79285 1.70711C4.98039 1.89464 5.23474 2 5.49996 2V0ZM0.792959 16.293C0.697449 16.3852 0.621267 16.4956 0.568858 16.6176C0.516449 16.7396 0.488862 16.8708 0.487709 17.0036C0.486555 17.1364 0.511857 17.2681 0.562137 17.391C0.612418 17.5138 0.686671 17.6255 0.780564 17.7194C0.874457 17.8133 0.986109 17.8875 1.10901 17.9378C1.2319 17.9881 1.36358 18.0134 1.49636 18.0123C1.62914 18.0111 1.76036 17.9835 1.88236 17.9311C2.00437 17.8787 2.11471 17.8025 2.20696 17.707L0.792959 16.293ZM16.5 1V13H18.5V1H16.5ZM17.5 0H5.49996V2H17.5V0ZM16.793 0.293L0.792959 16.293L2.20696 17.707L18.207 1.707L16.793 0.293Z" fill="#BE185D"/>
</svg>
